<svg xmlns="http://www.w3.org/2000/svg" version="1.1" xmlns:xlink="http://www.w3.org/1999/xlink" xmlns:svgjs="http://svgjs.com/svgjs" width="512" height="512" x="0" y="0" viewBox="0 0 60 60" style="enable-background:new 0 0 512 512" xml:space="preserve" class=""><g><path d="M39.62 38.63c0 5.3-4.32 9.62-9.62 9.62s-9.62-4.32-9.62-9.62c0-.08 0-.16.01-.24a9.578 9.578 0 0 1 1.03-4.1c.29-.6.65-1.16 1.07-1.68.1-.13.21-.25.32-.37.48-.54 1-1.01 1.58-1.42.11-.08.22-.16.34-.23-.01-.21-.01-.41-.01-.59 0-.81.09-1.59.26-2.32.69-2.91 2.65-4.95 5.02-4.95s4.33 2.04 5.01 4.95a9.702 9.702 0 0 1 .25 2.9c.12.07.23.15.34.24.58.39 1.11.87 1.6 1.42.1.11.21.24.31.36.42.52.78 1.09 1.08 1.69.25.5.46 1.03.62 1.56.05.14.09.27.12.41.17.71.27 1.42.28 2.14.01.08.01.15.01.23z" fill="#000000" data-original="#000000" class=""></path><path d="M52.41 45.31a.997.997 0 0 1-.92 1.07h-.07c-.52 0-.96-.4-1-.93l-.51-7.07-5.35-3.89-5.96-.2c-.3-.6-.66-1.17-1.08-1.69-.1-.12-.21-.25-.31-.36l7.73.26c.2.01.39.07.55.19l5.97 4.34c.24.18.39.45.41.74z" fill="#000000" data-original="#000000" class=""></path><path d="M47.04 47.21c.01.18-.03.35-.12.5l-3.55 6.76c-.18.34-.52.53-.89.53a.92.92 0 0 1-.46-.11 1 1 0 0 1-.42-1.35l3.43-6.52-.21-5.58-5.21-3.04c-.01-.72-.11-1.43-.28-2.14-.03-.14-.07-.27-.12-.41l7.09 4.14c.3.18.48.49.5.83zM51.43 13.98l-.9 6.69c-.02.15-.08.3-.17.43l-5.47 8.08a.98.98 0 0 1-.68.43l-8.61 1.21c-.11-.09-.22-.17-.34-.24a9.702 9.702 0 0 0-.25-2.9L40 22.12l.68-10.78-3.16-4.79a.99.99 0 0 1 .29-1.38.988.988 0 0 1 1.38.28l3.34 5.07c.12.18.18.39.17.61l-.73 11.46c-.01.22-.1.43-.25.6l-4.87 5.44 6.64-.94 5.09-7.52.87-6.46c.07-.55.58-.93 1.13-.86.54.07.93.58.85 1.13zM22.81 32.24a8.693 8.693 0 0 0-1.39 2.05l-5.98.2-5.35 3.89-.51 7.07c-.04.53-.47.93-.99.93h-.08a.997.997 0 0 1-.92-1.07l.54-7.54c.02-.29.17-.56.41-.74l5.97-4.34c.16-.12.35-.18.55-.19z" fill="#000000" data-original="#000000" class=""></path><path d="m15.17 41.44-.21 5.58 3.43 6.52c.26.48.07 1.09-.41 1.35-.15.08-.31.11-.47.11-.36 0-.71-.19-.89-.53l-3.55-6.76c-.08-.15-.12-.32-.12-.5l.24-6.39c.02-.34.2-.65.5-.83l7.11-4.16c-.25.82-.39 1.69-.41 2.56zM24.73 30c0 .18 0 .38.01.59-.12.07-.23.15-.34.23l-8.61-1.21c-.28-.04-.52-.2-.68-.43L9.63 21.1a.997.997 0 0 1-.17-.43l-.9-6.69a1 1 0 1 1 1.98-.27l.87 6.46 5.09 7.52 6.64.94-4.87-5.44a.976.976 0 0 1-.25-.6l-.72-11.46c-.02-.22.04-.43.16-.61l3.34-5.07a1 1 0 0 1 1.39-.28c.46.3.58.92.28 1.38l-3.16 4.79.68 10.78 4.99 5.56c-.17.73-.25 1.51-.25 2.32z" fill="#000000" data-original="#000000" class=""></path></g></svg>