<svg xmlns="http://www.w3.org/2000/svg" version="1.1" xmlns:xlink="http://www.w3.org/1999/xlink" xmlns:svgjs="http://svgjs.com/svgjs" width="512" height="512" x="0" y="0" viewBox="0 0 24 24" style="enable-background:new 0 0 512 512" xml:space="preserve" class=""><g><path d="M14.16 11.455a3.178 3.178 0 0 0 1.035-2.34c0-1.762-1.434-3.196-3.195-3.196S8.805 7.353 8.805 9.115a3.18 3.18 0 0 0 1.035 2.34c-1.784 1.096-2.992 3.412-2.992 5.486 0 2.841 2.312 5.152 5.152 5.152s5.152-2.311 5.152-5.152c0-2.074-1.208-4.39-2.992-5.486zM21.32 1.05v5.62c0 .35-.19.67-.49.85L17.57 9.5l-.98.59c.03-.14.06-.28.08-.42.02-.18.03-.37.03-.55 0-.46-.06-.89-.19-1.31l2.81-1.7V1.05c0-.55.44-1 1-1 .55 0 1 .45 1 1zM21.32 17.43v5.62c0 .55-.45 1-1 1-.56 0-1-.45-1-1v-5.16l-.69-.59c.02-.12.02-.24.02-.36 0-.91-.18-1.84-.52-2.72l2.84 2.45c.22.19.35.47.35.76z" fill="#000000" data-original="#000000" class=""></path><path d="M23.98 17.25a.99.99 0 0 1-.8 1.16c-.06.02-.12.02-.18.02-.47 0-.89-.34-.98-.82l-.61-3.24-3.5-.68a8.38 8.38 0 0 0-1.22-1.98c-.1-.12-.21-.24-.32-.36l1.07.21 5.02.98c.41.07.72.39.79.79z" fill="#000000" data-original="#000000" class=""></path><path d="m23.98 5.87-.73 3.92a.99.99 0 0 1-.79.8l-5.02.97-.75.15c-.1-.12-.21-.24-.32-.36-.05-.06-.1-.11-.16-.17.17-.35.3-.71.38-1.09.03-.14.06-.28.08-.42l.9-.17 3.84-.75.61-3.24a.99.99 0 0 1 1.16-.8c.55.1.9.62.8 1.16zM7.33 9.67c.02.14.05.28.08.42l-.98-.59-3.26-1.98c-.3-.18-.49-.5-.49-.85V1.05c0-.55.45-1 1-1 .56 0 1 .45 1 1v5.06l2.81 1.7c-.13.42-.19.85-.19 1.31 0 .18.01.37.03.55zM5.35 16.94c0 .12 0 .24.02.35l-.69.6v5.16c0 .55-.44 1-1 1-.55 0-1-.45-1-1v-5.62c0-.29.13-.57.35-.76l2.84-2.46c-.34.88-.52 1.82-.52 2.73z" fill="#000000" data-original="#000000" class=""></path><path d="M7.63 11.35c-.11.12-.22.24-.32.36a8.38 8.38 0 0 0-1.22 1.98l-3.5.68-.61 3.24c-.09.48-.51.82-.98.82-.06 0-.12 0-.18-.02a.99.99 0 0 1-.8-1.16l.73-3.92c.07-.4.38-.72.79-.79l5.02-.98z" fill="#000000" data-original="#000000" class=""></path><path d="M7.79 11.18c-.06.06-.11.11-.16.17-.11.12-.22.24-.32.36l-.75-.15-5.02-.97a.99.99 0 0 1-.79-.8L.02 5.87a.99.99 0 0 1 .8-1.16.99.99 0 0 1 1.16.8l.61 3.24 3.84.75.9.17c.02.14.05.28.08.42.08.38.21.74.38 1.09z" fill="#000000" data-original="#000000" class=""></path></g></svg>